<?xml version="1.0" encoding="utf-8"?><svg xmlns="http://www.w3.org/2000/svg" xmlns:xlink="http://www.w3.org/1999/xlink"><symbol viewBox="0 0 180 48" id="brands-carboma" xmlns="http://www.w3.org/2000/svg"><g clip-path="url(#aclip0_1526_2793)"><path fill-rule="evenodd" clip-rule="evenodd" d="M24.484 21.919L28.213 13h-6.661c-3.31.044-7.164.177-10.683 1.457C2.7 17.415.732 22.404.23 24.435c-.88 3.709.838 7.638 4.105 9.36 2.89 1.501 6.2 1.325 8.463.927 2.974-.53 5.362-1.59 7.08-3.135a2.98 2.98 0 01.076-.07c.232-.208.9-.81.97-1.033l.336-1.28c-2.472.97-4.567 1.456-6.494 1.545-1.298.044-3.728-.089-5.069-1.766-2.136-2.605-.25-6.49 1.425-8.345 1.885-2.075 5.446-3.532 9.426-3.93l-2.179 5.21h6.116zm56.22 1.5c-1.048-.308-2.179-.309-3.268-.309H75.34l-1.508 3.577h3.31c-.629 2.252-1.802 3.576-3.687 4.062-1.76.441-3.31.265-3.31.265l6.326-15.806h-6.41s-5.236 12.847-5.822 14.481c-1.131 3.135 1.508 4.724 4.147 4.9l.75.049h.002c1.302.084 1.302.084 2.85.084 6.075 0 11.48-4.37 11.521-7.903.042-1.722-1.089-2.914-2.806-3.4zm22.956 3.621c-.083-.883-.418-1.722-1.005-2.384-.67-.795-2.011-1.678-4.524-1.678h-1.76l-.763-.001c-2.764-.006-4.677-.011-6.484.84-2.64 1.236-4.943 3.576-4.65 6.887.126 1.28.838 2.473 1.885 3.135 1.09.663 2.514.972 3.728.972h2.606c2.734.007 4.473.011 6.317-.84 1.592-.75 3.142-1.898 3.98-3.575a5.835 5.835 0 00.67-3.356zm-6.577 2.252c-.418.662-1.047 1.192-1.717 1.457-1.006.441-2.095.53-3.184.53h-1.718v-.619c0-1.103.168-1.589.545-2.207.88-1.325 2.304-1.81 3.77-1.943l.105-.01c.378-.041.727-.078 1.11-.078h1.466s0 1.06-.041 1.501c.083.53-.084.971-.336 1.369zm32.634 5.342c-.586 0-1.131-.22-1.675-.662-.545-.442-.754-.928-.754-1.501 0-.133.042-.31.083-.486.126-.398 1.634-3.974 1.634-3.974l-6.912 5.034c-1.676 1.192-3.1 1.81-4.273 1.81-1.089 0-1.801-.177-2.22-.618-.252-.265-.377-.574-.377-1.016 0-.353.084-.75.293-1.192l1.718-4.018-8.588 6.623h-5.404l4.775-11.48h6.368l-2.388 5.652 6.116-4.106c1.467-1.06 2.975-1.545 4.902-1.545h2.89c-.125.33-.487 1.209-.713 1.757l-.167.406-1.55 3.709 6.326-4.371c1.425-1.06 3.016-1.59 4.734-1.59.964 0 2.472.089 2.891.133l-4.567 11.435h-3.142zm-90.403 0l4.818-11.48H34.32c-2.808-.007-4.97-.012-6.778.84-2.639 1.236-4.901 3.576-4.608 6.887.084.883.503 1.766 1.047 2.473.88 1.103 2.765 1.589 4.106 1.633 2.053 0 4.776-.795 6.032-2.472-.167.839.336 1.545.922 1.854.602.317 1.304.314 2.23.31h.325c-.041-.045 1.634-.045 1.718-.045zm-4.86-3.576c-3.225 1.06-4.985.441-5.32-.486-.293-.706-.042-1.369.335-1.943.964-1.412 2.388-1.986 4.944-1.986h1.885l-1.843 4.415zm17.847-3.09l5.907-4.813h6.325l-2.387 5.784h-5.991l.838-1.987-6.116 5.21-1.215 2.472h-6.368l4.65-11.48h6.326l-1.97 4.813zM159 23.154l-4.818 11.479c-.083 0-1.801 0-1.717.044l-.327.001c-.925.004-1.627.007-2.229-.31-.586-.309-1.089-1.015-.921-1.854-1.257 1.677-3.98 2.472-6.033 2.472-1.34-.044-3.225-.53-4.105-1.633-.545-.707-.964-1.59-1.048-2.473-.293-3.311 1.969-5.651 4.609-6.887 1.808-.852 3.969-.847 6.776-.84H159zm-14.997 7.417c.335.927 2.094 1.545 5.32.486l1.843-4.415h-1.885c-2.556 0-3.98.574-4.943 1.986-.377.574-.629 1.237-.335 1.943z"/></g><defs><clipPath id="aclip0_1526_2793"><path transform="translate(0 13)" d="M0 0h159v22H0z"/></clipPath></defs></symbol><symbol viewBox="0 0 180 48" id="brands-dazzl" xmlns="http://www.w3.org/2000/svg"><g clip-path="url(#bclip0_1526_2808)"><path fill-rule="evenodd" clip-rule="evenodd" d="M17.244 36H0V12h17.277c3.825 0 6.911 3.067 6.911 6.867v10.266A6.93 6.93 0 0117.244 36zm-7.85-9.333h4.26c.637 0 1.14-.5 1.14-1.134v-3.1c0-.633-.503-1.133-1.14-1.133h-4.26v5.367zM33.446 12c-3.824 0-6.91 3.067-6.91 6.833V36h9.393v-2.867h5.401V36h9.393V12H33.447zm2.483 12.567V22.4c0-.6.503-1.1 1.107-1.1h4.26v3.267H35.93zM60.722 21.3L52.838 36h24.457v-9.3h-7.616L77.563 12H53.14v9.3h7.582zM78.1 36l7.884-14.7h-7.582V12h24.423l-7.884 14.7h7.615V36H78.1zm46.9 0v-9.3h-8.555V12h-11.473v24H125z"/></g><defs><clipPath id="bclip0_1526_2808"><path transform="translate(0 12)" d="M0 0h125v24H0z"/></clipPath></defs></symbol><symbol viewBox="0 0 180 48" id="brands-frosteco" xmlns="http://www.w3.org/2000/svg"><path fill-rule="evenodd" clip-rule="evenodd" d="M2.836 36.122h2.469V19.827h4.538v-2.275H5.307v-.374c0-3.837 3.303-3.903 4.038-3.903h.5V11h-.5c-4.106 0-6.509 2.546-6.509 6.178v.374H0v2.275h2.836v16.295zm9.311 0h2.469v-11c0-3.767 2.836-5.33 5.171-5.464v-2.511c-2.236-.07-4.238 1.087-5.24 3.089h-.067v-2.681h-2.336v18.567h.003zM30 17.11c-5.406 0-9.546 4.21-9.546 9.742 0 5.534 4.171 9.71 9.546 9.71 5.372 0 9.546-4.176 9.546-9.71 0-5.532-4.14-9.742-9.546-9.742zm0 2.275c4.106 0 7.075 3.258 7.075 7.47 0 4.208-2.97 7.435-7.075 7.435s-7.074-3.225-7.074-7.436c0-4.21 2.971-7.47 7.074-7.47zm11.65 11.272c0 3.089 1.77 5.908 5.572 5.908 3.738 0 5.873-2.511 5.873-5.908 0-3.498-2.57-4.447-4.739-5.16-1.702-.544-3.57-1.223-3.57-3.36 0-1.562 1-2.75 2.736-2.75 1.535 0 2.67 1.122 2.635 2.785h2.469c.034-2.851-2.036-5.06-5.039-5.06-3.302 0-5.273 2.31-5.273 5.23 0 3.529 2.87 4.55 4.773 5.194 1.736.61 3.537 1.257 3.537 3.53 0 1.662-1.1 3.224-3.204 3.224-2.202 0-3.472-1.732-3.302-3.633h-2.469zm16.416 5.465h2.469V19.827h4.238v-2.275h-4.238V11h-2.469v6.552h-3.803v2.275h3.803v16.295zm27.399-8.385c.034-4.786-2.469-10.625-9.38-10.625-6.206 0-9.51 5.16-9.51 9.742 0 5.569 4.138 9.71 9.51 9.71 4.14 0 7.477-2.478 8.944-6.483h-2.57c-1.134 2.546-3.503 4.211-6.373 4.211-3.837 0-6.642-2.85-6.942-6.552h16.32v-.003zm-16.318-2.275c.6-3.53 3.438-6.077 6.941-6.077 3.17 0 6.009 2.31 6.707 6.077H69.147zm35.007 5.227c-1.3 2.341-3.636 3.598-6.14 3.598-3.97 0-7.276-3.259-7.276-7.502 0-4.107 3.037-7.4 7.275-7.4.834 0 4.306.135 6.141 3.802h2.771c-1.436-3.667-4.671-6.078-8.91-6.078-6.373 0-9.743 5.261-9.743 9.71 0 4.856 3.503 9.743 9.744 9.743 5.005 0 7.642-3.123 8.875-5.873h-2.737zm15.252-13.58c-5.406 0-9.546 4.211-9.546 9.743 0 3.75 1.915 6.875 4.822 8.502-.351.139-.713.262-1.086.373 4.893 1.792 9.717 1.922 13.721-1.111 4.88-5.025 4.919-11.861.065-15.642a3.33 3.33 0 00-.367-.178c.365.602.678 1.233.931 1.888 1.363 3.532.969 7.724-2.597 11.354-.061-.06.117-.356.406-.837 1.049-1.744 3.567-5.932 1.536-10.265a11.117 11.117 0 00-1.23-2.32c-.36.006-.713.096-1.057.261-1.556-1.12-3.48-1.767-5.598-1.767zm6.495 3.768h.39l.135.39c-.373.952-1.9 3.07-3.772 4.206.678-.785 1.368-1.604 1.971-2.448a13.37 13.37 0 001.276-2.147zm-2.663-.383c-1.083-.706-2.387-1.11-3.832-1.11-4.105 0-7.074 3.26-7.074 7.47 0 3.4 1.935 6.157 4.841 7.093 1.696-1.336 2.94-3.332 3.599-6.318.402-2.95 1.303-5.505 2.466-7.135zm6.605 3.353a8.218 8.218 0 01-.766-.798l.049.84.105.047c.411.183.427.19.985.224-.089-.073-.133-.107-.165-.132a2.594 2.594 0 01-.208-.18zm.481 2.42c-.337-.306-.783-.71-1-1.136l-.153.726c.427.281.688.427 1.269.584.011.003.016-.01.022-.023l.009-.017-.147-.135zm-.887 1.354a4.502 4.502 0 01-.553-.81l-.219.632c.576.58.85.742 1.551.925a5.702 5.702 0 01-.779-.747zm-4.304 3.156c.196-.211.368-.397.524-.534l.284-1.18c-.367.516-1.385 1.537-1.967 2.12l-.238.24c-.485.49-.983.968-1.596 1.427 1.438-.393 2.345-1.373 2.993-2.073zm-3.35.158c2.492-.769 4.408-3.07 5.021-3.853l.141-1.299c-.696.886-1.966 2.373-2.732 3.134a16.51 16.51 0 01-2.43 2.018zm.634-2.537c2.56-1.461 4.144-3.83 4.653-4.744l-.198-1.005c-.48.864-1.468 2.315-2.127 3.192a18.215 18.215 0 01-2.328 2.557z"/></symbol><symbol viewBox="0 0 180 48" id="brands-polair-group" xmlns="http://www.w3.org/2000/svg"><g clip-path="url(#dclip0_1526_2773)"><path fill-rule="evenodd" clip-rule="evenodd" d="M41.6 7.635c.985.411 1.678 1.196 2.08 2.092.401.86.584 1.831.584 2.803 0 1.644-.62 3.25-1.898 4.222a5.41 5.41 0 01-1.86.896c-.694.15-1.497.262-2.227.262h-.766c-.073 0-.155-.01-.237-.019a2.18 2.18 0 00-.238-.018h-.109v3.661h-3.248V7.374l.146-.038c.584-.112 1.241-.187 1.934-.261A45.75 45.75 0 0138.024 7c.365 0 .766.037 1.167.075.438.037.876.112 1.278.187.401.112.766.224 1.13.373zm-3.978 7.323c.402.038.876.038 1.278-.037.51-.075 2.08-.336 2.08-2.317 0-2.071-1.29-2.361-1.687-2.45a3.975 3.975 0 00-1.05-.127c-.157 0-.313.01-.458.02a5.332 5.332 0 01-.345.017c-.146 0-.474.037-.474.037v4.82s.547.037.656.037zM0 36.18V7.15h25.252v29.03l-12.626 4.745L0 36.18zm20.18-20.064a20.358 20.358 0 00-1.095-.336c-1.679-.41-3.284-.448-4.598-.112.51.374 1.058.972 1.496 1.756 1.168-.112 2.445.075 3.722.598.117.051.227.103.329.15.12.057.23.108.328.149l.766-1.756-.073-.038a4.821 4.821 0 00-.875-.41zM7.043 17.424h.11c.12 0 .266-.026.437-.056l.11-.019c.547-.074 1.24-.15 1.277-.15H9.962c.657 0 1.277.225 1.533.337.401.15.766.374 1.058.673.292.261.51.598.657 1.009.146.373.219.822.219 1.27 0 .523-.073 1.009-.256 1.457-.182.411-.401.822-.73 1.12l-.109.113.002.008c.04.206.226 1.16.837 1.897.22-.149.438-.298.657-.485.547-.449.949-1.046 1.277-1.719.329-.673.475-1.494.475-2.391a5.86 5.86 0 00-.402-2.167 4.233 4.233 0 00-1.13-1.607 5.004 5.004 0 00-1.753-.971c-.583-.187-1.605-.411-2.48-.411-1.388 0-2.665.112-3.212.224h-.183c-.291 0-1.058.075-1.642.224l-.11.038v13.338h2.117v-3.699c.365.112 1.095.299 2.08.448a9.263 9.263 0 01-.577-1.91l-.006-.032c-.474-.081-.871-.181-1.18-.259-.119-.03-.225-.057-.317-.078v-6.165c.037 0 .082-.009.128-.018.046-.01.091-.019.128-.019zM21.2 28.147l.037-.037h.036v-5.866h-4.05L16.42 24l2.956-.037v2.914l-.073.075c-.024.012-.045.024-.065.037-.04.025-.081.05-.154.075-.183.074-.438.15-.693.224-.256.075-.511.112-.803.15-1.679.223-3.941-.113-5.182-1.794-1.131-1.495-1.35-3.886-.547-5.53.11-.261.255-.486.438-.71-.475-.859-1.35-1.009-1.68-1.046-.838 1.196-1.35 2.653-1.35 4.073 0 2.989 1.46 5.38 3.905 6.463.913.411 2.007.598 3.139.598.948 0 1.934-.112 2.919-.41a8.035 8.035 0 001.131-.412l.17-.095.002-.001c.258-.145.487-.273.667-.427zm19.779 4.67l-1.168 2.653h3.211v2.055c-.146.075-.292.15-.474.187-.192.066-.412.102-.611.136l-.083.014a4.377 4.377 0 01-.693.074c-.12 0-.24.011-.35.022-.088.008-.168.016-.234.016-.584 0-1.13-.038-1.642-.15-.474-.112-.912-.261-1.277-.523-.547-.336-.985-.822-1.314-1.457-.328-.635-.474-1.383-.474-2.28 0-.746.11-1.419.328-2.017.22-.56.548-1.046.95-1.42.218-.186.437-.373.729-.523.255-.15.547-.261.84-.336.291-.075.62-.15.912-.187a7.552 7.552 0 012.882.224c.657.187 1.241.411 1.825.673l.182.075.95-2.915-.147-.074c-.766-.374-1.569-.598-2.445-.785a15.486 15.486 0 00-2.59-.224c-.475 0-.986.037-1.533.112a7.97 7.97 0 00-1.57.374 7.84 7.84 0 00-1.495.71 6.198 6.198 0 00-1.314 1.12c-.256.3-.511.636-.766.972-.22.373-.438.747-.62 1.195-.183.411-.293.897-.402 1.383-.11.486-.146 1.009-.146 1.569 0 1.158.182 2.204.51 3.101.33.897.84 1.681 1.533 2.354.402.374.803.71 1.277.971.475.262.95.486 1.46.636a10.95 10.95 0 003.065.448c.365 0 .73 0 1.168-.037.38-.033.758-.093 1.16-.157l.19-.03c.475-.112.95-.224 1.423-.411l.067-.026c.461-.182 1.014-.399 1.466-.684l.073-.038V32.93H40.98v-.112zm57.29-6.351c.402.112.767.224 1.132.373 1.022.412 1.679 1.159 2.08 2.055.401.822.584 1.831.584 2.803 0 1.644-.62 3.25-1.898 4.222a5.406 5.406 0 01-1.86.896c-.694.15-1.497.262-2.227.262h-.766a2.18 2.18 0 01-.237-.019 2.204 2.204 0 00-.237-.019h-.11v3.662h-3.247V26.578l.145-.037c.584-.113 1.241-.187 1.934-.262.694-.037 1.57-.075 2.263-.075.365 0 .766.038 1.168.075.438.037.875.112 1.277.187zm-2.846 7.697c.402.037.876.037 1.278-.038l.082-.017h.001c.58-.121 1.997-.417 1.997-2.3 0-2.07-1.29-2.36-1.687-2.45a3.975 3.975 0 00-1.05-.127c-.157 0-.313.01-.458.02a5.332 5.332 0 01-.345.017c-.146 0-.474.037-.474.037v4.82s.547.038.656.038zm-43.278-12.33c1.095 0 2.08-.187 2.956-.523.876-.374 1.605-.86 2.226-1.532.62-.635 1.058-1.457 1.386-2.354.329-.897.475-1.905.475-3.026 0-1.084-.146-2.092-.475-2.99-.328-.896-.766-1.68-1.386-2.353a6.821 6.821 0 00-2.226-1.532C54.226 7.15 53.24 7 52.146 7a8.43 8.43 0 00-2.846.486 6.445 6.445 0 00-2.226 1.457c-.62.635-1.095 1.42-1.423 2.354-.329.934-.511 1.98-.511 3.138s.182 2.205.51 3.139c.329.934.803 1.718 1.424 2.353.62.636 1.35 1.121 2.226 1.458.839.261 1.824.448 2.846.448zM48.57 14.36c0-.784.073-1.457.255-2.017.183-.56.402-1.009.73-1.383.328-.373.693-.635 1.131-.784.438-.187.95-.262 1.496-.262.62 0 1.168.112 1.606.337.438.224.84.523 1.131.934.292.373.511.859.657 1.42a7.09 7.09 0 01.22 1.793c0 .635-.074 1.233-.22 1.793a4.21 4.21 0 01-.657 1.42c-.292.374-.657.71-1.13.934-.439.224-.986.336-1.607.336-.547 0-1.058-.074-1.496-.261a3.447 3.447 0 01-1.13-.785c-.33-.373-.548-.822-.73-1.382-.183-.635-.256-1.308-.256-2.093zm15.91 4.185h4.16l-1.277 2.989h-6.13V7.149h3.247v11.396zm7.408 2.989l1.24-2.952h5.401l1.24 2.952h3.467l-6.13-14.385h-2.372l-6.13 14.385h3.284zm3.94-9.714l.475 1.42 1.095 2.652H74.26l1.094-2.615.475-1.457zm8.94-4.67h3.249v14.384h-3.248V7.149zm9.671 8.78l1.57.186 3.977 5.418H104l-4.379-5.604-.474-.486.105-.04c.264-.1.545-.206.77-.371a4.33 4.33 0 00.986-.86 3.3 3.3 0 00.657-1.232 5.474 5.474 0 00.255-1.607c0-.784-.146-1.457-.474-2.017-.329-.56-.73-1.01-1.278-1.346a4.144 4.144 0 00-.912-.448 8.792 8.792 0 00-1.058-.299c-.365-.075-.73-.112-1.131-.15-.365-.037-.73-.037-1.095-.037-.292 0-.657 0-1.058.038-.37 0-.74.032-1.14.066l-.101.008c-.438.038-.84.075-1.24.113a8.668 8.668 0 00-1.095.149l-.146.037v14.086h3.247V15.93zm3.358-2.504c-.256.15-.548.262-.913.3-.365.074-.73.074-1.058.074h-1.387v-3.475h.183c.146 0 .292 0 .438-.037h.51c.548 0 1.059 0 1.497.075.292.037.584.15.803.299.218.149.364.298.51.56.11.224.183.486.183.71 0 .41-.073.71-.183.971a3.944 3.944 0 01-.584.523zM56.52 34.571l-.106.04.475.523 4.379 5.604h-4.014l-3.978-5.417-1.57-.187v5.604H48.46V26.615l.146-.037a8.68 8.68 0 011.095-.15h.002c.4-.037.801-.074 1.239-.112l.1-.008c.4-.035.77-.066 1.14-.066.402-.038.767-.038 1.059-.038.364 0 .73 0 1.094.038.402.037.767.074 1.132.15.364.074.73.186 1.058.298.328.112.62.262.912.448.547.337.949.785 1.277 1.345.329.56.475 1.233.475 2.018 0 .598-.11 1.12-.256 1.607a3.301 3.301 0 01-.657 1.233c-.292.336-.62.635-.985.859-.225.164-.507.271-.77.37zm-.945-2.8c.11-.261.182-.56.182-.971a1.82 1.82 0 00-.146-.673 1.504 1.504 0 00-.51-.56 1.899 1.899 0 00-.803-.299c-.438-.075-.949-.075-1.496-.075h-.511c-.146.038-.292.038-.438.038h-.183v3.474h1.387c.329 0 .694 0 1.058-.074.365-.038.657-.15.913-.3.219-.149.401-.336.547-.56zm17.48-3.586a6.822 6.822 0 00-2.227-1.532c-.875-.374-1.86-.523-2.955-.523a8.431 8.431 0 00-2.847.485 6.445 6.445 0 00-2.226 1.458c-.62.635-1.095 1.42-1.423 2.353-.328.934-.51 1.98-.51 3.139 0 1.158.182 2.204.51 3.138.328.934.803 1.719 1.423 2.354s1.35 1.121 2.226 1.457c.84.336 1.825.486 2.847.486 1.094 0 2.08-.187 2.955-.523.876-.374 1.606-.86 2.226-1.532.62-.672 1.058-1.457 1.387-2.354.328-.897.474-1.905.474-3.026 0-1.084-.146-2.092-.474-2.99-.328-.933-.766-1.755-1.387-2.39zm-1.57 5.343c0 .635-.073 1.232-.219 1.793a4.212 4.212 0 01-.657 1.42c-.292.373-.656.71-1.13.934-.439.224-.986.336-1.606.336-.548 0-1.059-.075-1.497-.262a3.447 3.447 0 01-1.13-.784c-.33-.374-.548-.822-.73-1.383-.183-.56-.256-1.233-.256-2.017 0-.785.073-1.457.255-2.018.183-.56.402-1.009.73-1.382a2.413 2.413 0 011.131-.785c.438-.187.95-.261 1.497-.261.62 0 1.167.112 1.605.336.438.224.84.523 1.131.934.292.374.511.86.657 1.42.146.485.22 1.083.22 1.719zm13.903 3.026c.11-.337.183-.748.183-1.233v-8.93h3.102v9.08c0 .933-.146 1.755-.438 2.428a4.081 4.081 0 01-1.168 1.718 4.984 4.984 0 01-1.788 1.01 8.383 8.383 0 01-2.19.298c-.912 0-1.751-.075-2.48-.299a5.399 5.399 0 01-1.898-.971 3.948 3.948 0 01-1.168-1.607 5.918 5.918 0 01-.401-2.204V26.39h3.247v8.93c0 .897.22 1.606.62 2.017.402.411 1.095.636 2.044.636.401 0 .766-.038 1.095-.15.292-.075.547-.224.766-.448.22-.224.365-.486.474-.822z"/></g><defs><clipPath id="dclip0_1526_2773"><path transform="translate(0 7)" d="M0 0h104v34H0z"/></clipPath></defs></symbol><symbol viewBox="0 0 180 48" id="brands-polair-plus" xmlns="http://www.w3.org/2000/svg"><g clip-path="url(#eclip0_1526_2821)"><path fill-rule="evenodd" clip-rule="evenodd" d="M24.079 24.042C24.079 18.27 27.915 13 36.485 13c8.489 0 12.57 5.27 12.57 11.042S44.974 35 36.485 35c-7.999 0-12.406-5.186-12.406-10.958zm13.467 9.201c1.878-.418 2.857-4.266 2.694-7.946-.245-6.525-2.775-10.206-4.49-10.54-2.121.836-2.693 4.684-2.53 8.197.164 6.023 2.286 10.038 4.326 10.29zM53.79 13.502h8.733v18.57H68.4v2.426H53.79V13.502zm20.813 15.559h6.53l1.224 5.437h9.305l-4.57-20.996H75.5l-4.653 20.996h2.53c.245-.753 1.225-5.437 1.225-5.437zm3.673-12.799l2.367 10.624h-5.632l2.367-10.624h.898zm35.669-2.76h11.019c.44 0 .899-.012 1.37-.024 2.585-.067 5.512-.143 7.445 1.697 1.306 1.255 1.796 3.011 1.796 4.768-.082 3.513-1.551 5.52-4 6.692l.327.67 4.571 7.11h-9.387l-3.265-7.362-1.143-.084v7.445h-8.733V13.502zm8.733 11.878c.49.084 2.367.251 2.367.251s1.796-2.426 1.796-5.52c0-1.34 0-4.853-4.163-4.853V25.38zm-25.384 9.118h8.734V13.502h-8.734v20.996zM11.101 13.502c5.142 0 10.12.502 10.12 6.274 0 7.445-4.815 9.118-9.467 9.118-1.143 0-2.204-.084-3.02-.251v5.855H0V13.502h11.1zM8.734 26.719c.49.083 2.367.25 2.367.25s1.795-2.258 1.795-6.19c0-1.505 0-5.437-4.08-5.437V26.72h-.082zm148.308-7.11H163v8.783h-5.958v6.106h-8.571v-6.106h-5.958v-8.784h5.958v-6.106h8.571v6.106z"/></g><defs><clipPath id="eclip0_1526_2821"><path transform="translate(0 13)" d="M0 0h163v22H0z"/></clipPath></defs></symbol><symbol viewBox="0 0 180 48" id="brands-rada" xmlns="http://www.w3.org/2000/svg"><path fill-rule="evenodd" clip-rule="evenodd" d="M25.37 10H0v23.884h1.683l2.825-17.099 14.266-5.01 4.86 14.37-1.279 7.739h3.016V10zm56.314 5.396h4.147c2.81 0 4.908.538 6.294 1.614 1.39 1.072 2.083 2.71 2.083 4.902 0 2.222-.663 3.831-1.99 4.839-1.327 1.003-3.455 1.507-6.387 1.507h-4.147V15.396zM68.15 28.39l2.122 4.858c4.85 0 9.702.004 14.553.008h.011c6.07.004 12.143.01 18.218.007l2.113-4.629h12.392l2.02 4.629h7.333L115.754 10.44h-7.699l-7.323 14.1c.136-.783.2-1.61.2-2.476 0-2.29-.444-4.295-1.332-6.022-.888-1.727-2.157-3.053-3.81-3.987-1.065-.597-2.26-1.028-3.602-1.292-1.341-.264-3.132-.396-5.371-.396h-11.53v18.106L66.35 10.196H58.65L51.44 24.08a3.192 3.192 0 00-1.48-1.551c-.804-.411-1.985-.626-3.556-.646 2.088-.352 3.645-1.008 4.679-1.971 1.04-.964 1.556-2.231 1.556-3.816 0-1.062-.253-2.011-.76-2.838-.503-.827-1.225-1.467-2.152-1.922-.713-.348-1.542-.592-2.493-.744-.947-.152-2.338-.225-4.162-.225H30.62v22.88h6.294v-8.732h3.84c1.99 0 3.245.191 3.767.573.522.386.873 1.198 1.059 2.436l.434 3.038.02.173c.098.817.216 1.805.58 2.513h6.913l2.225-4.858H68.15zm47.321-4.159h-8.182l4.293-8.771 3.889 8.771zm-49.405-.25h-8.182l4.294-8.77 3.888 8.77zm-29.152-3.85v-5.337l4.04-.005c2.015 0 3.347.191 4.006.573.658.386.99 1.066.99 2.035 0 1.008-.356 1.712-1.068 2.118-.712.411-2.02.617-3.928.617h-4.04zm40.989 18.87c-.156.166-.24.42-.24.744 0 .244.06.577.23.773.078.097.259.244.585.244a.674.674 0 00.479-.166c.283-.254.292-.68.292-.87 0-.23-.034-.524-.224-.735-.166-.18-.356-.215-.542-.215-.17.005-.395.024-.58.225zm1.673-1.262c-.278.132-.473.176-.976.26h-.01a2 2 0 00-.463.121.96.96 0 00-.346.274 1.3 1.3 0 00-.244.622h.01c.229-.504.692-.592 1.024-.592.234 0 .517.039.766.274.186.171.376.489.376 1.022 0 .387-.107.744-.303.984-.19.234-.492.41-.975.41-.235 0-.547-.053-.82-.327-.366-.372-.42-.92-.42-1.282 0-.886.254-1.292.43-1.482.292-.314.678-.387.97-.44l.26-.05c.372-.07.506-.096.716-.186v.392h.005zM6.27 38.938c.078.132.122.327.126.494v.005H4.918a.926.926 0 01.185-.534.753.753 0 01.59-.279.64.64 0 01.577.313zm.107 1.976c.224-.162.366-.357.439-.592l-.395-.083a.856.856 0 01-.166.289c-.093.107-.268.234-.561.234-.332 0-.576-.151-.708-.474a1.353 1.353 0 01-.087-.529h1.966v-.097c0-.436-.161-1.375-1.171-1.375-.854 0-1.259.71-1.259 1.433 0 .382.088.724.327.998.234.27.537.397.917.397a1.2 1.2 0 00.698-.201zm-4.07-2.236v-.332H.206v.332h.849v2.383h.405v-2.383h.849zm7.25-.332l.567.939.59-.94h.405l-.785 1.229.927 1.487h-.488l-.678-1.096-.708 1.096h-.405l.903-1.4-.815-1.316h.488zm4.47 1.135v-1.136h-.405v2.716h.405v-1.248h1.254v1.248h.405v-2.715h-.405v1.135h-1.254zm6.187.225c0-.89-.43-1.062-.757-1.062-.322 0-.756.171-.756 1.062 0 .89.43 1.061.756 1.061.327-.005.757-.171.757-1.061zm-.757-1.414c.703 0 1.22.523 1.22 1.409 0 .89-.522 1.409-1.22 1.409-.702 0-1.22-.524-1.22-1.41 0-.885.523-1.408 1.22-1.408zm5.626 2.769V38.34h-1.63l-.005.303c-.029 1.365-.087 1.634-.166 1.776a.54.54 0 01-.41.284h-.043v.352h.02c.185 0 .604-.04.785-.568.083-.24.127-.601.17-1.815h.874v2.388h.405zm4.527-1.355c0-.89-.429-1.062-.756-1.062-.322 0-.756.171-.756 1.062 0 .89.43 1.061.756 1.061.327-.005.756-.171.756-1.061zm-.75-1.414c.702 0 1.219.523 1.219 1.409 0 .89-.522 1.409-1.22 1.409-.702 0-1.22-.524-1.22-1.41-.004-.885.518-1.408 1.22-1.408zm5.41.386v-.332h-1.64v2.715h.405v-2.383h1.235zm2.8-.332v1.629c0 .12-.002.159-.007.234l-.007.137c.073-.167.15-.274.223-.378l.03-.042 1.015-1.346v-.234h.405v2.715h-.405v-1.605c0-.098.005-.26.02-.386-.02.048-.059.136-.244.376l-1.03 1.35v.26h-.404V38.34h.405v.005zm4.694.748v-.748h-.405v.684c0 .309 0 .612.24.788.19.137.463.137.638.137.244 0 .396-.015.65-.044v1.145h.404V38.34h-.405v1.247c-.16.02-.4.04-.585.04-.186 0-.366 0-.464-.118-.08-.101-.076-.249-.074-.363l.001-.053zm6.045.338a1.107 1.107 0 00-.127-.495.637.637 0 00-.57-.313.753.753 0 00-.59.28.926.926 0 00-.186.532h1.473v-.004zm.42.89c-.073.235-.215.43-.44.592a1.2 1.2 0 01-.697.2c-.38 0-.683-.127-.917-.396-.24-.274-.327-.616-.327-.998 0-.724.405-1.433 1.259-1.433 1.01 0 1.17.94 1.17 1.375v.097h-1.966c-.005.181.025.372.088.529.132.323.376.474.708.474.292 0 .468-.127.56-.234a.857.857 0 00.167-.29l.395.084zm4.015-1.438c.068.102.127.259.147.41l.39-.063a1.315 1.315 0 00-.278-.621c-.19-.215-.44-.308-.737-.308-.434 0-.707.185-.893.44-.205.284-.283.611-.283.973 0 .46.142.896.405 1.14.156.142.4.265.742.265.292 0 .541-.093.732-.29.15-.16.268-.4.307-.66l-.38-.068a.914.914 0 01-.176.44.556.556 0 01-.474.225.597.597 0 01-.517-.274c-.034-.044-.175-.264-.175-.778 0-.22.029-.528.175-.768a.585.585 0 01.522-.303c.264 0 .42.132.493.24zm3.796.596c.356 0 .537-.073.654-.577l.013-.058c.03-.13.063-.275.148-.372.117-.137.288-.142.37-.142.04 0 .076.004.115.008l.012.002v.318c-.016-.004-.037-.002-.057-.001h-.026c-.058.005-.121.015-.17.079-.046.055-.07.179-.081.234l-.002.01-.04.191c-.058.299-.228.43-.409.46v.01c.258.02.361.196.424.367.048.133.084.252.114.353.033.115.06.206.091.268.05.098.098.113.2.113.035 0 .064 0 .098-.005v.323c-.059.01-.117.01-.176.01-.423 0-.48-.182-.578-.496l-.007-.023-.066-.21a1.566 1.566 0 00-.115-.314c-.107-.185-.263-.23-.483-.23h-.395v1.253h-.405v-2.715h.405v1.135h.366v.01zm4.874-.836c.327 0 .756.171.756 1.062 0 .89-.429 1.056-.756 1.061-.327 0-.756-.171-.756-1.061 0-.89.434-1.062.756-1.062zm1.225 1.057c0-.886-.518-1.41-1.22-1.41-.703 0-1.22.524-1.22 1.41 0 .885.517 1.409 1.22 1.409.698 0 1.22-.519 1.22-1.41zm4.303-.27a1.107 1.107 0 00-.127-.493.637.637 0 00-.57-.314.753.753 0 00-.591.28.926.926 0 00-.185.532h1.473v-.004zm.42.891c-.074.235-.215.43-.44.592a1.2 1.2 0 01-.697.2c-.38 0-.683-.127-.917-.396-.24-.274-.327-.616-.327-.998 0-.724.405-1.433 1.258-1.433 1.01 0 1.171.94 1.171 1.375v.097h-1.966c-.005.181.025.372.088.529.132.323.376.474.707.474.293 0 .469-.127.561-.234a.857.857 0 00.166-.29l.396.084zm6.723-1.678c.327 0 .756.171.756 1.062 0 .89-.43 1.056-.756 1.061-.322 0-.751-.171-.751-1.061 0-.89.429-1.062.75-1.062zm1.224 1.057c0-.886-.517-1.41-1.22-1.41-.702 0-1.224.524-1.22 1.41 0 .885.518 1.409 1.22 1.409.698 0 1.22-.519 1.22-1.41zm8.46-1.057c.328 0 .757.171.757 1.062 0 .89-.43 1.056-.756 1.061-.322 0-.752-.171-.752-1.061 0-.89.43-1.062.752-1.062zm1.225 1.057c0-.886-.517-1.41-1.22-1.41-.702 0-1.224.524-1.22 1.41 0 .885.518 1.409 1.22 1.409.698 0 1.22-.519 1.22-1.41zm2.957.288c0 .137.02.358.19.548.151.167.347.23.517.23a.614.614 0 00.532-.318c.127-.21.166-.504.166-.748 0-.455-.112-.67-.161-.744a.596.596 0 00-.532-.303.637.637 0 00-.488.215.805.805 0 00-.224.558v.562zm-.405 1.957v-3.6h.37v.508l.006-.005c.107-.254.36-.557.805-.557.336 0 .58.122.746.313.234.26.342.69.342 1.081 0 .362-.088.758-.288 1.023a.957.957 0 01-.8.406c-.43 0-.654-.23-.766-.48h-.015v1.311h-.4zm5.362-.142c.156-.147.23-.318.288-.484l1.068-2.97h-.37l-.727 2.09-.703-2.09h-.468l.951 2.667-.034.088c-.083.25-.151.391-.254.474-.102.088-.205.093-.302.093-.108 0-.18-.01-.293-.039v.313c.107.04.234.054.341.054a.69.69 0 00.503-.196zm4.24-2.984c-.015.401-.064 1.062-.24 1.526a4.702 4.702 0 01-.17.382h1.244v-2.055h-.83l-.004.147zm1.24-.47v2.383h.277v1.062h-.37v-.73h-1.801v.73h-.37v-1.062h.2c.092-.132.18-.294.253-.484.195-.5.22-1.033.234-1.654l.005-.245h1.571zm3.751.294c.327 0 .756.171.756 1.062-.005.89-.434 1.056-.756 1.061-.322 0-.751-.171-.751-1.061 0-.89.429-1.062.751-1.062zm1.22 1.057c0-.886-.517-1.41-1.22-1.41s-1.22.524-1.22 1.41c0 .885.517 1.409 1.22 1.409.698 0 1.22-.519 1.22-1.41zm2.961 1.032h.849c.195 0 .342-.054.425-.132a.459.459 0 00.127-.328.426.426 0 00-.166-.347c-.132-.103-.322-.113-.425-.113h-.81v.92zm.005-1.252h.752c.126 0 .292-.01.409-.138a.451.451 0 00.108-.308.313.313 0 00-.117-.259c-.113-.098-.239-.098-.361-.098h-.791v.803zm.791-1.136c.219 0 .448.01.629.118a.572.572 0 01.288.523.591.591 0 01-.181.455.713.713 0 01-.351.172v.01a.825.825 0 01.503.215c.053.053.18.2.18.464a.75.75 0 01-.283.602c-.205.162-.439.166-.659.166h-1.332v-2.715h1.206v-.01zm4.205 1.502c.151-.078.395-.132.82-.132h.341v.132c0 .191-.078.44-.214.612a.848.848 0 01-.644.303.651.651 0 01-.386-.102.436.436 0 01-.195-.362c0-.137.054-.333.278-.45zm.503-1.55c-.591 0-1.03.156-1.147.738l.386.064c.063-.44.531-.475.756-.475.19 0 .424.01.561.196.098.127.107.308.107.45v.113h-.351c-.41 0-.839.005-1.166.23a.789.789 0 00-.366.685c0 .283.127.47.244.577.132.122.346.24.693.24.639 0 .873-.402.946-.558.005.132.02.308.049.504h.425a2.506 2.506 0 01-.069-.568v-1.042c0-.352-.005-.724-.297-.959-.239-.19-.591-.195-.771-.195zm4.201.049v1.135h1.253v-1.136h.401v2.716h-.401v-1.248h-1.253v1.248h-.405v-2.715h.405zm4.83 1.629V38.34h-.405v2.715h.405v-.26l1.029-1.35c.186-.24.225-.328.244-.376a3.967 3.967 0 00-.019.386v1.605h.405v-2.715h-.405v.234l-1.015 1.346-.03.042c-.074.103-.151.21-.224.378l.008-.137c.005-.075.007-.113.007-.234zm6.177-.543a1.11 1.11 0 00-.127-.495.64.64 0 00-.576-.313.753.753 0 00-.59.28.922.922 0 00-.186.532h1.479v-.004zm.419.89c-.073.235-.214.43-.439.592-.21.142-.434.2-.698.2-.38 0-.683-.127-.917-.396-.239-.274-.327-.616-.327-.998 0-.724.405-1.433 1.259-1.433 1.01 0 1.171.94 1.171 1.375v.097h-1.966a1.34 1.34 0 00.088.529c.131.323.375.474.707.474.293 0 .468-.127.561-.234a.857.857 0 00.166-.29l.395.084zM3.635 33.884L5.83 20.596l2.933 8.45-.8 4.838H3.634zm13.47-5.48l-.907 5.48h4.206l1.161-7.035-4.46 1.555zm-7.186 5.48l.522-3.156 4.591-1.6-.785 4.756H9.919z"/></symbol><symbol viewBox="0 0 180 48" id="brands-radax" xmlns="http://www.w3.org/2000/svg"><g clip-path="url(#gclip0_1526_2837)"><path fill-rule="evenodd" clip-rule="evenodd" d="M8.643 14.245v11.399h5.365v-11.4H8.643zM22.693 37H14.05l-2.937-8.154H8.686L8.643 37H0V11h18.649c1.235 0 2.214.384 2.938 1.11.724.726 1.064 1.708 1.064 2.946v9.734c0 1.067-.298 1.921-.809 2.604-.553.683-1.277 1.153-2.171 1.324L22.694 37zm10.39-2.86h4.3v-9.265h-4.3v9.265zM45.345 37H29.123c-1.235 0-2.214-.384-2.938-1.11-.724-.726-1.107-1.708-1.107-2.946v-7.727c0-.94.298-1.75.894-2.348.596-.598 1.363-.897 2.342-.897h9.069V19.07H29.08v-2.86h13.072c.936 0 1.703.299 2.299.896.596.598.894 1.366.894 2.348V37zm10.772-2.86V19.069h4.3v15.07h-4.3zM52.115 37h16.307V11H60.46v5.209h-9.154c-.98 0-1.746.298-2.342.896-.596.598-.894 1.409-.894 2.348v13.491c0 1.238.383 2.22 1.107 2.946S50.88 37 52.115 37zm54.158-11.527L112.446 37h-7.961l-3.194-6.062L96.863 37h-3.576l6.429-8.923-6.344-11.868h7.962l3.406 6.404 4.598-6.404H113l-6.727 9.264zm-22.95 8.667h-4.3v-9.265h4.3v9.265zM75.064 37h16.223V19.453c0-.982-.298-1.75-.895-2.348-.596-.598-1.362-.896-2.299-.896h-13.07v2.86h8.302v2.903h-9.07c-.979 0-1.745.299-2.341.897-.596.597-.894 1.409-.894 2.348v7.727c0 1.238.383 2.22 1.107 2.946S73.829 37 75.064 37z"/></g><defs><clipPath id="gclip0_1526_2837"><path transform="translate(0 11)" d="M0 0h113v26H0z"/></clipPath></defs></symbol><symbol viewBox="0 0 40 41" id="condensate-icon" xmlns="http://www.w3.org/2000/svg"><path fill-rule="evenodd" clip-rule="evenodd" d="M16.89.599c-.268.129-1.383 1.866-2.058 3.204-.776 1.542-.886 2.529-.393 3.53.32.649.853 1.179 1.496 1.487.47.225.572.244 1.33.244.725 0 .872-.024 1.264-.208 1.075-.504 1.863-1.69 1.863-2.803 0-.77-.68-2.341-1.784-4.118C17.756.565 17.452.328 16.889.6zm.938 3.089c.593 1.039 1 2 1 2.361 0 .306-.189.767-.414 1.008-.52.557-1.502.65-2.065.197-.733-.59-.82-1.254-.308-2.34.373-.788 1.137-2.145 1.209-2.145.03 0 .29.414.578.919zm11.293 2.381c-.512.186-2.512 3.738-2.747 4.877-.421 2.049 1.428 3.967 3.502 3.633 1.767-.285 2.946-1.935 2.597-3.633-.145-.706-1.06-2.554-1.902-3.845-.496-.76-.669-.964-.875-1.036-.295-.103-.28-.104-.575.004zm-19.618.78c-.241.087-1.126 1.315-2.694 3.74C2.537 17.191.18 22.178.009 24.975c-.053.89.121 2.214.416 3.146a9.882 9.882 0 006.272 6.403c1.082.365 1.87.486 3.233.492l1.227.007.395.657c.55.915.934 1.392 1.727 2.147 1.37 1.303 2.936 2.12 4.846 2.526.909.193 2.835.195 3.726.004 1.99-.426 3.517-1.231 4.956-2.612l.756-.726.424.23c.233.126.792.352 1.243.503 2.433.813 5.088.428 7.223-1.048 1.595-1.103 2.792-2.816 3.306-4.733.185-.691.209-.922.209-2.031 0-1.11-.024-1.34-.21-2.031a8.37 8.37 0 00-5.957-5.955c-.673-.177-.948-.207-1.993-.213-1.033-.006-1.314.02-1.91.175-.811.212-1.747.593-2.31.94a4.08 4.08 0 01-.426.242c-.017 0-.232-.375-.476-.833-.611-1.144-1.606-2.838-2.68-4.562-1.247-2.001-3.367-5.143-3.564-5.281-.09-.063-.3-.114-.468-.114-.42 0-.541.143-2.118 2.519l-1.325 1.995-.849-1.483c-1.09-1.906-2.497-4.15-4.076-6.502-1.008-1.501-1.304-1.889-1.51-1.974-.29-.122-.3-.122-.593-.016zm20.582 2.488c.921 1.648 1.063 2.24.697 2.904-.21.38-.573.655-1.028.777-1.041.28-2.126-.79-1.85-1.827.11-.414.655-1.547 1.134-2.357.428-.723.337-.767 1.047.503zm-19.173 1.271c1.728 2.627 3.535 5.619 4.431 7.337l.228.436-.47.776c-2.084 3.435-3.65 6.588-4.35 8.752-.462 1.433-.55 2.016-.5 3.318.024.626.1 1.363.168 1.638.069.275.103.521.077.547-.098.098-1.662.028-2.302-.102a8.05 8.05 0 01-4.023-2.094c-1.185-1.118-1.957-2.41-2.364-3.957-.163-.618-.202-.954-.21-1.814-.008-.932.016-1.146.206-1.829.792-2.834 3.234-7.474 6.724-12.774.687-1.042 1.259-1.896 1.27-1.896.013 0 .514.748 1.115 1.662zm10.165 5.434c1.788 2.718 2.954 4.635 4.17 6.857l.683 1.247-.404.446c-.804.89-1.518 2.335-1.822 3.685-.197.872-.18 2.571.035 3.44.377 1.53 1.005 2.726 1.98 3.77l.562.601-.383.394c-1.631 1.673-4.022 2.599-6.366 2.464-2.042-.118-3.848-.93-5.324-2.396-1.232-1.223-1.952-2.565-2.303-4.296-.193-.955-.127-2.389.154-3.33.685-2.292 2.57-6.057 4.991-9.969 1.009-1.629 2.881-4.457 2.952-4.457.033 0 .517.695 1.075 1.544zm12.256 7.407c1.673.44 3.059 1.418 3.99 2.818 2.278 3.42.969 7.984-2.79 9.727-1.012.47-1.576.586-2.803.58-.913-.003-1.15-.032-1.755-.214-2.324-.7-4.056-2.473-4.668-4.777-.234-.886-.233-2.405.003-3.284.701-2.615 2.742-4.473 5.456-4.967.533-.097 2.01-.03 2.567.117zM29.68 24.94c-.268.146-.374.34-.374.69 0 .217.176.538.86 1.57.734 1.106.86 1.342.86 1.608v.311h-.39c-.368 0-.47-.052-1.636-.829-1.328-.885-1.583-.976-1.984-.714a.886.886 0 00-.288.403c-.151.459.03.705.98 1.328.453.298.84.57.862.604.021.034-.366.33-.86.658-.726.482-.914.646-.984.857-.105.318.05.758.316.9.416.223.653.132 2.026-.78 1.183-.787 1.345-.871 1.617-.849.295.024.303.033.326.353.022.303-.04.425-.84 1.62-.7 1.047-.865 1.347-.865 1.574 0 .384.12.576.443.71.503.21.732.061 1.369-.896.305-.459.582-.864.615-.9.034-.038.317.314.63.781.312.467.623.891.69.943.38.29.936.133 1.154-.324.173-.362.109-.51-.828-1.91-.738-1.104-.788-1.204-.788-1.572v-.393h.307c.261 0 .503.13 1.584.846.701.465 1.36.868 1.464.895.273.071.681-.128.823-.402.271-.525.103-.784-.97-1.494-.478-.316-.841-.6-.807-.63.034-.03.434-.303.89-.606.595-.396.857-.62.93-.795a.747.747 0 00-.254-.89c-.4-.299-.631-.218-1.982.683-1.143.763-1.272.829-1.614.829h-.372v-.354c0-.318.08-.472.79-1.533.936-1.4 1-1.548.827-1.91-.178-.374-.541-.546-.915-.434-.25.075-.368.206-.86.95-.314.475-.596.88-.627.898-.03.019-.312-.354-.626-.83-.704-1.063-.985-1.245-1.5-.966z"/></symbol><symbol viewBox="0 0 41 41" id="register-icon" xmlns="http://www.w3.org/2000/svg"><path fill-rule="evenodd" clip-rule="evenodd" d="M18.093.548c-6.106.626-11.501 3.903-14.869 9.03-5.034 7.665-4.087 18.09 2.24 24.656.568.59.782.703 1.15.615.297-.072 3.28-3.062 3.32-3.329.056-.362-.083-.635-.605-1.188-.527-.559-1.444-1.743-1.444-1.865 0-.037.333-.263.741-.503s.777-.503.821-.586a.832.832 0 00-.148-.948c-.324-.325-.625-.303-1.298.091-1.05.616-.927.615-1.212.01-.596-1.263-1.134-3.28-1.228-4.604l-.045-.64.957-.027c.937-.026.96-.03 1.145-.246a.756.756 0 00.189-.523.756.756 0 00-.189-.524c-.185-.215-.208-.22-1.145-.246l-.957-.026.045-.64c.094-1.334.615-3.277 1.213-4.53l.29-.607.743.43c.88.51 1.149.547 1.492.204a.832.832 0 00.148-.949c-.044-.082-.413-.346-.82-.586-.409-.24-.742-.456-.742-.481 0-.18 1.067-1.482 1.877-2.293.81-.81 2.114-1.877 2.293-1.877.025 0 .241.334.481.741.24.408.504.777.586.822.298.159.705.095.949-.149.343-.343.306-.612-.203-1.492l-.43-.743.606-.29c1.253-.598 3.196-1.119 4.53-1.213l.64-.045.026.957c.026.937.031.96.246 1.145a.81.81 0 001.047 0c.215-.184.22-.208.246-1.145l.026-.957.641.045c1.333.094 3.276.615 4.529 1.213l.607.29-.43.743c-.51.88-.547 1.149-.204 1.492.244.244.651.308.949.149.082-.045.346-.414.586-.822.24-.407.456-.74.482-.74.179 0 1.482 1.066 2.292 1.876.81.81 1.877 2.114 1.877 2.293 0 .025-.333.241-.741.481s-.777.504-.821.586a.832.832 0 00.148.949c.342.342.612.306 1.492-.2l.743-.427.29.604c.596 1.241 1.119 3.19 1.213 4.525l.045.64-.957.027c-.937.026-.96.031-1.145.246a.81.81 0 000 1.047c.185.215.208.22 1.145.246l.957.026-.045.641c-.049.686-.34 2.24-.438 2.34-.033.033-.303.001-.601-.072-.722-.176-2.512-.179-3.287-.004-1.69.381-3.112 1.174-4.259 2.375-.879.92-1.398 1.74-1.801 2.844-.881 2.414-.64 4.923.686 7.141.468.783 1.556 1.938 2.332 2.474 4.143 2.864 9.826 1.41 12.053-3.085.242-.489.516-1.2.634-1.643.183-.693.207-.925.205-2.034-.001-1.1-.027-1.345-.209-2.034a10.252 10.252 0 00-.641-1.657l-.435-.876.243-.689c1.642-4.65 1.396-10.164-.657-14.715-1.75-3.878-4.76-7.17-8.49-9.282-2.011-1.139-4.55-1.993-7.006-2.356-.957-.142-3.734-.205-4.694-.106zm4.615 1.676a18.408 18.408 0 0110.33 5.239 17.928 17.928 0 013.48 4.808 18.65 18.65 0 011.766 5.6c.196 1.292.198 3.94.004 5.201-.15.976-.358 1.924-.608 2.763l-.158.533-.347-.32c-.314-.29-1.404-1.047-1.601-1.112-.051-.017-.021-.264.08-.671.776-3.117.529-6.637-.68-9.68-1.74-4.385-5.409-7.868-9.835-9.34-4.079-1.356-8.359-1.073-12.209.809a16.123 16.123 0 00-8.18 9.352 16.09 16.09 0 002.778 15.242l.533.654-.81.814c-.446.447-.838.804-.871.793-.14-.047-1.217-1.42-1.792-2.286-1.455-2.189-2.454-4.819-2.857-7.523-.192-1.29-.19-4.02.005-5.269 1.1-7.082 5.902-12.713 12.742-14.944 1.165-.38 2.3-.604 4.124-.812.583-.066 3.363.034 4.106.149zm-3.219 7.893l-.216.186-.755 5.622-.755 5.622-.5.508c-.798.812-1.165 1.674-1.165 2.738a3.924 3.924 0 003.075 3.836c.571.128 1.624.06 2.18-.14 1.515-.546 2.568-2.061 2.568-3.696 0-1.064-.367-1.926-1.165-2.738l-.5-.508-.755-5.622-.755-5.622-.216-.186a.755.755 0 00-.52-.186.755.755 0 00-.52.186zm.82 8.711c.138 1.065.251 1.972.25 2.015-.001.044-.238.078-.55.078-.311 0-.548-.034-.549-.078-.006-.24.51-3.95.55-3.95.025 0 .16.87.299 1.935zm.752 3.886c1.029.504 1.517 1.668 1.182 2.82-.172.592-.825 1.277-1.406 1.475-.916.311-1.802.107-2.483-.574-.486-.486-.691-.973-.69-1.637.001-1.737 1.822-2.854 3.397-2.084zm12.368 3.097c3.44.876 5.607 4.325 4.893 7.787-.287 1.39-.901 2.49-1.95 3.492-2.594 2.478-6.569 2.473-9.195-.012-.871-.825-1.529-1.947-1.857-3.172-.234-.87-.237-2.404-.008-3.254.715-2.646 2.85-4.585 5.495-4.99.7-.108 1.881-.04 2.622.149zm-3.694 1.443c-.3.13-.417.329-.417.703 0 .228.165.528.865 1.575.8 1.196.863 1.318.84 1.621-.023.325-.026.328-.35.352-.304.022-.426-.041-1.622-.841-1.08-.722-1.343-.865-1.591-.865-.376 0-.609.162-.721.502-.158.479.014.714 1.002 1.367.478.317.855.6.836.632-.02.03-.405.299-.858.596-.95.624-1.132.87-.98 1.328.05.151.18.333.289.404.407.267.632.186 1.972-.706 1.178-.785 1.28-.837 1.648-.837h.391v.311c0 .266-.127.502-.86 1.608-.734 1.107-.86 1.343-.86 1.61 0 .54.528.897 1.026.69.174-.072.406-.347.833-.988.326-.49.616-.862.646-.828.03.033.303.434.606.89.61.916.84 1.087 1.29.958.325-.093.632-.534.573-.827-.023-.117-.413-.767-.866-1.446-.758-1.136-.824-1.264-.824-1.607v-.371h.372c.342 0 .471.066 1.606.823.68.453 1.33.843 1.447.867.293.058.733-.248.827-.575.129-.449-.042-.679-.959-1.289a28.214 28.214 0 01-.89-.605c-.033-.03.34-.321.829-.647.641-.427.916-.659.988-.833a.737.737 0 00-.691-1.027c-.266 0-.502.127-1.609.86-1.106.735-1.342.861-1.608.861h-.312v-.391c0-.368.052-.47.837-1.648.893-1.34.974-1.565.707-1.972a.887.887 0 00-.404-.29c-.458-.15-.705.031-1.328.981-.297.453-.566.839-.597.858-.03.019-.315-.357-.631-.836-.428-.647-.641-.898-.829-.977-.305-.127-.311-.127-.623.009z"/></symbol><symbol viewBox="0 0 40 41" id="thermometer-icon" xmlns="http://www.w3.org/2000/svg"><path fill-rule="evenodd" clip-rule="evenodd" d="M24.724.617a4.38 4.38 0 00-3.22 3.31c-.09.427-.11 2.31-.111 10.937l-.001 10.421-.465.316a7.985 7.985 0 00-3.187 4.512c-.268 1.005-.303 2.734-.078 3.784.674 3.138 2.966 5.595 5.96 6.387.68.18.945.208 2.033.215.966.006 1.393-.025 1.87-.137 1.663-.39 2.868-1.075 4.055-2.306 2.697-2.798 3.148-7.152 1.064-10.269a8.55 8.55 0 00-2.049-2.138L30 25.21l-.02-10.696-.021-10.696-.176-.467C29.006 1.294 26.817.11 24.724.617zm1.75 1.563c.82.244 1.51.877 1.8 1.648.156.42.159.563.163 11.16.003 8.104.027 10.8.098 11.002.073.213.216.343.68.62.706.423 1.882 1.58 2.257 2.219.615 1.049.892 2.087.891 3.347 0 1.79-.63 3.426-1.81 4.706-1.185 1.287-2.678 1.98-4.467 2.075-4.217.225-7.626-3.558-6.958-7.72.117-.733.472-1.71.855-2.355.446-.75 1.296-1.628 2.089-2.156.359-.238.704-.508.768-.6.102-.144.116-1.532.116-10.898 0-10.219.007-10.755.145-11.197.456-1.467 1.935-2.278 3.373-1.85zm-16.152.768c-1.877.315-3.394 1.12-4.701 2.495-3.05 3.207-3.05 8.091 0 11.299 1.72 1.808 4.064 2.737 6.486 2.57 3.557-.245 6.533-2.72 7.464-6.209.178-.666.202-.912.202-2.01 0-1.1-.024-1.345-.202-2.012-.957-3.586-4.033-6.07-7.684-6.203-.586-.022-1.175.005-1.565.07zm2.855 1.657c.609.155 1.643.623 2.165.98 1.278.873 2.288 2.306 2.698 3.83.23.853.25 2.42.042 3.203-.555 2.086-1.848 3.652-3.743 4.53-1.024.475-1.58.59-2.805.583-.904-.006-1.155-.037-1.744-.214-1.95-.586-3.4-1.81-4.237-3.576-.46-.972-.613-1.682-.613-2.849 0-.798.036-1.152.17-1.643.713-2.637 2.827-4.544 5.51-4.972.582-.093 1.962-.024 2.557.128zm18.837-.082c-.447.247-.518.843-.145 1.216l.228.23h1.81c1.994 0 2.168-.035 2.345-.461a.786.786 0 00-.202-.88c-.195-.183-.222-.186-2.01-.204-1.494-.015-1.85.002-2.026.1zM9.526 6.083c-.299.13-.417.328-.417.703 0 .227.165.528.865 1.575.8 1.196.863 1.318.841 1.621-.023.322-.03.328-.337.351-.283.02-.436-.059-1.607-.828-.711-.467-1.377-.872-1.479-.899-.525-.137-1.042.462-.864 1.002.07.21.255.376.924.826.46.31.866.591.904.624.037.033-.34.33-.838.66-.731.485-.92.65-.99.86-.188.57.35 1.147.918.984.128-.036.765-.422 1.416-.857 1.107-.74 1.207-.791 1.575-.791h.394v.314c0 .27-.122.497-.861 1.602-.718 1.075-.86 1.337-.86 1.585 0 .563.45.897.976.724.233-.078.375-.234.836-.927a29.7 29.7 0 01.608-.893c.03-.033.326.344.66.839.526.78.644.91.901.987.393.118.755-.06.919-.45.158-.38.106-.5-.825-1.893-.71-1.062-.79-1.216-.79-1.534v-.354h.372c.342 0 .471.066 1.584.808.667.444 1.297.83 1.4.856.275.07.683-.13.824-.403.272-.525.103-.785-.967-1.493-.476-.314-.866-.58-.866-.59 0-.01.39-.275.866-.59 1.07-.708 1.239-.968.967-1.493-.141-.274-.55-.473-.823-.402-.104.027-.763.43-1.465.896-1.08.717-1.323.846-1.584.846h-.308v-.393c0-.368.05-.468.79-1.573.931-1.393.983-1.513.825-1.893-.163-.388-.527-.568-.915-.452-.252.076-.376.211-.902.988-.335.495-.633.873-.663.84-.03-.033-.302-.434-.607-.891-.427-.643-.61-.852-.804-.92-.304-.105-.286-.106-.593.027zm22.552 1.57c-.321.167-.433.343-.436.688-.001.228.052.353.227.528l.228.228h1.065c1.217 0 1.393-.062 1.537-.543.115-.384-.064-.752-.44-.91-.377-.157-1.875-.152-2.181.008zm-6.802 2.394c-.37.214-.364.076-.364 8.907 0 6.572-.02 8.303-.098 8.324-1.234.329-1.956.711-2.68 1.422-.566.555-.983 1.23-1.271 2.06-.18.516-.207.717-.205 1.533.001.804.031 1.03.21 1.57a5.162 5.162 0 004.488 3.522c1.994.167 4.02-.997 4.917-2.823.375-.762.512-1.36.515-2.238.004-1.467-.445-2.547-1.492-3.592-.818-.816-1.509-1.198-2.604-1.44l-.215-.048V10.44l-.203-.24c-.167-.2-.259-.24-.528-.239-.179.002-.39.04-.47.087zm6.567.934c-.292.347-.278.753.037 1.055l.24.23 1.657.024c1.934.029 2.197-.021 2.432-.46.178-.331.13-.623-.149-.9l-.188-.19h-3.827l-.203.241zm.026 3.117c-.411.411-.263 1.052.292 1.263.308.117 1.79.09 2.097-.038.377-.158.556-.527.441-.91-.144-.481-.32-.543-1.537-.543h-1.065l-.228.228zm0 3.13c-.26.26-.313.712-.115.994.222.317.469.351 2.332.326 1.736-.023 1.77-.027 1.964-.21a.955.955 0 00.246-.407c.063-.288-.145-.727-.4-.843-.128-.059-.816-.09-1.997-.09h-1.802l-.228.23zM26.67 28.903c.538.138 1.072.458 1.528.914 2.034 2.038.909 5.481-1.951 5.971-1.054.181-2.229-.207-3.019-.997-1.32-1.32-1.383-3.486-.14-4.816.994-1.062 2.206-1.425 3.582-1.072z"/></symbol><symbol viewBox="0 0 40 41" id="ventilation-icon" xmlns="http://www.w3.org/2000/svg"><path fill-rule="evenodd" clip-rule="evenodd" d="M16.616.552c-4.51.5-8.39 2.381-11.46 5.558-2.283 2.364-3.814 5.095-4.61 8.23-.433 1.703-.548 2.677-.546 4.627.002 1.931.11 2.836.54 4.536 1.803 7.14 7.789 12.53 15.218 13.702 1.252.197 4.063.197 5.277-.001 1.033-.169 2.25-.458 2.997-.712l.548-.186.297.482c.4.648 1.472 1.747 2.188 2.241 4.136 2.86 9.82 1.402 12.046-3.09.242-.487.516-1.198.634-1.642.184-.693.207-.925.205-2.033-.001-1.095-.027-1.347-.204-2.011a8.92 8.92 0 00-1.23-2.676c-.494-.715-1.593-1.787-2.242-2.187l-.482-.297.154-.443c.25-.72.604-2.245.745-3.215.164-1.123.184-3.714.038-4.776-.866-6.273-4.613-11.555-10.113-14.256C24.8 1.512 22.97.937 21.073.663 20.011.507 17.556.447 16.616.551zm3.374 1.56A16.959 16.959 0 0131.6 8.41c3.4 4.274 4.538 9.895 3.056 15.094-.282.988-.207.945-1.224.703-.933-.223-2.637-.194-3.603.061-2.311.61-3.977 1.876-5.287 4.016-.083.136-.135.104-.654-.4a11.624 11.624 0 01-3.137-5.343l-.174-.65.323-.323.323-.323 2.605.446c2.802.48 3.575.537 4.406.326 1.796-.454 3.253-2.002 3.596-3.819.17-.894.165-4.63-.005-5.205-.242-.812-1.057-1.416-1.912-1.416-.627 0-1.137.264-1.608.83-1.782 2.144-3.791 3.487-6.201 4.145l-.73.199-.315-.339-.316-.339.442-2.62c.472-2.804.525-3.528.318-4.344-.285-1.12-1.093-2.264-2.049-2.898a6.285 6.285 0 00-1.114-.536l-.668-.24H12.51l-.42.232a1.997 1.997 0 00-.84 2.593c.14.3.35.536.84.946.902.754 1.82 1.744 2.353 2.536.573.853 1.25 2.268 1.494 3.119.33 1.15.332 1.094-.063 1.43l-.347.296-2.565-.444c-2.794-.484-3.535-.537-4.393-.315-1.284.334-2.594 1.395-3.165 2.563-.48.986-.533 1.407-.506 4.092.023 2.237.032 2.366.193 2.664.39.72.993 1.088 1.788 1.092.759.004 1.184-.223 1.768-.94 1.494-1.835 3.461-3.202 5.544-3.853 1.258-.393 1.215-.393 1.574-.004l.312.338-.446 2.583c-.489 2.827-.54 3.55-.31 4.42.426 1.613 1.734 2.952 3.406 3.487.355.113.811.143 2.596.17l2.166.035.05.442c.063.579.24 1.482.343 1.75l.08.214-.642.195c-1.697.515-2.917.69-4.866.697-1.741.006-2.72-.11-4.235-.5-5.57-1.436-10.052-5.634-11.835-11.086-1.747-5.342-.802-10.97 2.602-15.497.65-.864 2.031-2.285 2.847-2.928 3.474-2.742 7.902-4.07 12.157-3.648zm-2.394 4.969c.964.25 1.733.897 2.175 1.833.384.813.375 1.396-.06 3.912-.197 1.14-.377 2.162-.4 2.271-.04.198-.046.199-.83.19l-.789-.008-.25-.816c-.584-1.902-1.447-3.456-2.722-4.905-.446-.506-.768-.81-1.808-1.711-.313-.272-.364-.514-.156-.744.12-.132.295-.143 2.252-.143 1.659 0 2.224.026 2.588.12zm12.664 6.232c.103.146.122.492.122 2.186 0 1.182-.036 2.184-.087 2.427a3.375 3.375 0 01-1.82 2.333c-.86.422-1.376.413-4.181-.073a405.114 405.114 0 00-2.316-.398c-.011 0 .01-.185.047-.41.037-.227.046-.59.02-.808l-.047-.397.457-.101c1.158-.258 2.674-.944 3.925-1.777.946-.63 2.244-1.814 2.919-2.662.317-.4.435-.494.616-.494.142 0 .268.063.345.174zm-11.227 3.625c1.503.446 1.951 2.456.784 3.51-.428.387-.81.533-1.403.54-.632.007-1.105-.203-1.552-.688-.314-.341-.56-.943-.56-1.373 0-.807.638-1.692 1.41-1.959.527-.181.79-.188 1.322-.03zm-6.602.705c1.118.19 2.105.36 2.193.381.148.035.159.093.15.836l-.008.798-.62.172c-1.798.5-3.387 1.35-4.946 2.648-.594.494-1.024.944-1.932 2.022-.214.255-.448.275-.664.059-.149-.149-.157-.26-.157-2.252 0-2.75.109-3.189 1.007-4.085.7-.698 1.645-1.054 2.552-.962.215.022 1.306.194 2.425.383zm6.316 4.916c.275-.036.379-.021.402.057.927 3.161 2.091 5.07 4.224 6.93l.461.403-.1.473-.1.473h-1.902c-1.098 0-2.077-.037-2.316-.088-1.735-.364-2.893-2.002-2.644-3.738.09-.633.6-3.652.71-4.2l.078-.398.408.068c.224.037.575.046.779.02zm14.651 3.252c3.44.877 5.606 4.326 4.892 7.787-.287 1.39-.901 2.49-1.95 3.492-2.593 2.478-6.568 2.473-9.194-.012-.871-.825-1.529-1.947-1.857-3.172-.234-.87-.237-2.404-.008-3.253.715-2.646 2.85-4.586 5.495-4.99.699-.108 1.88-.04 2.622.148zm-3.694 1.443c-.3.13-.417.33-.417.704 0 .227.165.527.864 1.574.8 1.196.863 1.319.841 1.622-.023.324-.027.328-.351.351-.303.022-.425-.041-1.621-.84-1.08-.723-1.343-.865-1.591-.865-.376 0-.61.162-.721.502-.158.478.014.713 1.001 1.366.48.317.855.601.837.632-.02.03-.405.299-.858.596-.95.624-1.132.87-.98 1.329.05.15.18.332.289.403.407.267.632.187 1.972-.706 1.178-.785 1.28-.837 1.647-.837h.392v.311c0 .266-.127.502-.86 1.609-.735 1.106-.861 1.342-.861 1.608 0 .541.529.898 1.026.691.175-.072.407-.347.834-.988.325-.49.616-.862.646-.828.03.033.303.434.606.89.61.916.84 1.087 1.289.958.326-.093.632-.534.574-.827-.023-.117-.413-.767-.866-1.446-.758-1.135-.824-1.264-.824-1.606v-.372h.372c.342 0 .47.066 1.606.823.679.454 1.33.843 1.447.867.292.058.733-.248.826-.575.13-.448-.042-.679-.958-1.288a28.606 28.606 0 01-.89-.606c-.033-.03.34-.321.828-.646.641-.428.917-.66.989-.834A.737.737 0 0036.1 29.8c-.265 0-.502.126-1.608.86s-1.343.86-1.609.86h-.311v-.391c0-.367.052-.47.837-1.648.893-1.34.973-1.565.707-1.972a.887.887 0 00-.404-.289c-.458-.15-.705.031-1.329.98-.297.453-.565.84-.596.858-.03.02-.315-.357-.632-.836-.427-.646-.64-.898-.828-.976-.305-.127-.311-.127-.623.008z"/></symbol></svg>