<?xml version="1.0" encoding="utf-8"?><svg xmlns="http://www.w3.org/2000/svg" xmlns:xlink="http://www.w3.org/1999/xlink"><symbol viewBox="0 0 40 41" id="condensate-icon" xmlns="http://www.w3.org/2000/svg"><path fill-rule="evenodd" clip-rule="evenodd" d="M16.89.599c-.268.129-1.383 1.866-2.058 3.204-.776 1.542-.886 2.529-.393 3.53.32.649.853 1.179 1.496 1.487.47.225.572.244 1.33.244.725 0 .872-.024 1.264-.208 1.075-.504 1.863-1.69 1.863-2.803 0-.77-.68-2.341-1.784-4.118C17.756.565 17.452.328 16.889.6zm.938 3.089c.593 1.039 1 2 1 2.361 0 .306-.189.767-.414 1.008-.52.557-1.502.65-2.065.197-.733-.59-.82-1.254-.308-2.34.373-.788 1.137-2.145 1.209-2.145.03 0 .29.414.578.919zm11.293 2.381c-.512.186-2.512 3.738-2.747 4.877-.421 2.049 1.428 3.967 3.502 3.633 1.767-.285 2.946-1.935 2.597-3.633-.145-.706-1.06-2.554-1.902-3.845-.496-.76-.669-.964-.875-1.036-.295-.103-.28-.104-.575.004zm-19.618.78c-.241.087-1.126 1.315-2.694 3.74C2.537 17.191.18 22.178.009 24.975c-.053.89.121 2.214.416 3.146a9.882 9.882 0 006.272 6.403c1.082.365 1.87.486 3.233.492l1.227.007.395.657c.55.915.934 1.392 1.727 2.147 1.37 1.303 2.936 2.12 4.846 2.526.909.193 2.835.195 3.726.004 1.99-.426 3.517-1.231 4.956-2.612l.756-.726.424.23c.233.126.792.352 1.243.503 2.433.813 5.088.428 7.223-1.048 1.595-1.103 2.792-2.816 3.306-4.733.185-.691.209-.922.209-2.031 0-1.11-.024-1.34-.21-2.031a8.37 8.37 0 00-5.957-5.955c-.673-.177-.948-.207-1.993-.213-1.033-.006-1.314.02-1.91.175-.811.212-1.747.593-2.31.94a4.08 4.08 0 01-.426.242c-.017 0-.232-.375-.476-.833-.611-1.144-1.606-2.838-2.68-4.562-1.247-2.001-3.367-5.143-3.564-5.281-.09-.063-.3-.114-.468-.114-.42 0-.541.143-2.118 2.519l-1.325 1.995-.849-1.483c-1.09-1.906-2.497-4.15-4.076-6.502-1.008-1.501-1.304-1.889-1.51-1.974-.29-.122-.3-.122-.593-.016zm20.582 2.488c.921 1.648 1.063 2.24.697 2.904-.21.38-.573.655-1.028.777-1.041.28-2.126-.79-1.85-1.827.11-.414.655-1.547 1.134-2.357.428-.723.337-.767 1.047.503zm-19.173 1.271c1.728 2.627 3.535 5.619 4.431 7.337l.228.436-.47.776c-2.084 3.435-3.65 6.588-4.35 8.752-.462 1.433-.55 2.016-.5 3.318.024.626.1 1.363.168 1.638.069.275.103.521.077.547-.098.098-1.662.028-2.302-.102a8.05 8.05 0 01-4.023-2.094c-1.185-1.118-1.957-2.41-2.364-3.957-.163-.618-.202-.954-.21-1.814-.008-.932.016-1.146.206-1.829.792-2.834 3.234-7.474 6.724-12.774.687-1.042 1.259-1.896 1.27-1.896.013 0 .514.748 1.115 1.662zm10.165 5.434c1.788 2.718 2.954 4.635 4.17 6.857l.683 1.247-.404.446c-.804.89-1.518 2.335-1.822 3.685-.197.872-.18 2.571.035 3.44.377 1.53 1.005 2.726 1.98 3.77l.562.601-.383.394c-1.631 1.673-4.022 2.599-6.366 2.464-2.042-.118-3.848-.93-5.324-2.396-1.232-1.223-1.952-2.565-2.303-4.296-.193-.955-.127-2.389.154-3.33.685-2.292 2.57-6.057 4.991-9.969 1.009-1.629 2.881-4.457 2.952-4.457.033 0 .517.695 1.075 1.544zm12.256 7.407c1.673.44 3.059 1.418 3.99 2.818 2.278 3.42.969 7.984-2.79 9.727-1.012.47-1.576.586-2.803.58-.913-.003-1.15-.032-1.755-.214-2.324-.7-4.056-2.473-4.668-4.777-.234-.886-.233-2.405.003-3.284.701-2.615 2.742-4.473 5.456-4.967.533-.097 2.01-.03 2.567.117zM29.68 24.94c-.268.146-.374.34-.374.69 0 .217.176.538.86 1.57.734 1.106.86 1.342.86 1.608v.311h-.39c-.368 0-.47-.052-1.636-.829-1.328-.885-1.583-.976-1.984-.714a.886.886 0 00-.288.403c-.151.459.03.705.98 1.328.453.298.84.57.862.604.021.034-.366.33-.86.658-.726.482-.914.646-.984.857-.105.318.05.758.316.9.416.223.653.132 2.026-.78 1.183-.787 1.345-.871 1.617-.849.295.024.303.033.326.353.022.303-.04.425-.84 1.62-.7 1.047-.865 1.347-.865 1.574 0 .384.12.576.443.71.503.21.732.061 1.369-.896.305-.459.582-.864.615-.9.034-.038.317.314.63.781.312.467.623.891.69.943.38.29.936.133 1.154-.324.173-.362.109-.51-.828-1.91-.738-1.104-.788-1.204-.788-1.572v-.393h.307c.261 0 .503.13 1.584.846.701.465 1.36.868 1.464.895.273.071.681-.128.823-.402.271-.525.103-.784-.97-1.494-.478-.316-.841-.6-.807-.63.034-.03.434-.303.89-.606.595-.396.857-.62.93-.795a.747.747 0 00-.254-.89c-.4-.299-.631-.218-1.982.683-1.143.763-1.272.829-1.614.829h-.372v-.354c0-.318.08-.472.79-1.533.936-1.4 1-1.548.827-1.91-.178-.374-.541-.546-.915-.434-.25.075-.368.206-.86.95-.314.475-.596.88-.627.898-.03.019-.312-.354-.626-.83-.704-1.063-.985-1.245-1.5-.966z"/></symbol><symbol viewBox="0 0 41 41" id="register-icon" xmlns="http://www.w3.org/2000/svg"><path fill-rule="evenodd" clip-rule="evenodd" d="M18.093.548c-6.106.626-11.501 3.903-14.869 9.03-5.034 7.665-4.087 18.09 2.24 24.656.568.59.782.703 1.15.615.297-.072 3.28-3.062 3.32-3.329.056-.362-.083-.635-.605-1.188-.527-.559-1.444-1.743-1.444-1.865 0-.037.333-.263.741-.503s.777-.503.821-.586a.832.832 0 00-.148-.948c-.324-.325-.625-.303-1.298.091-1.05.616-.927.615-1.212.01-.596-1.263-1.134-3.28-1.228-4.604l-.045-.64.957-.027c.937-.026.96-.03 1.145-.246a.756.756 0 00.189-.523.756.756 0 00-.189-.524c-.185-.215-.208-.22-1.145-.246l-.957-.026.045-.64c.094-1.334.615-3.277 1.213-4.53l.29-.607.743.43c.88.51 1.149.547 1.492.204a.832.832 0 00.148-.949c-.044-.082-.413-.346-.82-.586-.409-.24-.742-.456-.742-.481 0-.18 1.067-1.482 1.877-2.293.81-.81 2.114-1.877 2.293-1.877.025 0 .241.334.481.741.24.408.504.777.586.822.298.159.705.095.949-.149.343-.343.306-.612-.203-1.492l-.43-.743.606-.29c1.253-.598 3.196-1.119 4.53-1.213l.64-.045.026.957c.026.937.031.96.246 1.145a.81.81 0 001.047 0c.215-.184.22-.208.246-1.145l.026-.957.641.045c1.333.094 3.276.615 4.529 1.213l.607.29-.43.743c-.51.88-.547 1.149-.204 1.492.244.244.651.308.949.149.082-.045.346-.414.586-.822.24-.407.456-.74.482-.74.179 0 1.482 1.066 2.292 1.876.81.81 1.877 2.114 1.877 2.293 0 .025-.333.241-.741.481s-.777.504-.821.586a.832.832 0 00.148.949c.342.342.612.306 1.492-.2l.743-.427.29.604c.596 1.241 1.119 3.19 1.213 4.525l.045.64-.957.027c-.937.026-.96.031-1.145.246a.81.81 0 000 1.047c.185.215.208.22 1.145.246l.957.026-.045.641c-.049.686-.34 2.24-.438 2.34-.033.033-.303.001-.601-.072-.722-.176-2.512-.179-3.287-.004-1.69.381-3.112 1.174-4.259 2.375-.879.92-1.398 1.74-1.801 2.844-.881 2.414-.64 4.923.686 7.141.468.783 1.556 1.938 2.332 2.474 4.143 2.864 9.826 1.41 12.053-3.085.242-.489.516-1.2.634-1.643.183-.693.207-.925.205-2.034-.001-1.1-.027-1.345-.209-2.034a10.252 10.252 0 00-.641-1.657l-.435-.876.243-.689c1.642-4.65 1.396-10.164-.657-14.715-1.75-3.878-4.76-7.17-8.49-9.282-2.011-1.139-4.55-1.993-7.006-2.356-.957-.142-3.734-.205-4.694-.106zm4.615 1.676a18.408 18.408 0 0110.33 5.239 17.928 17.928 0 013.48 4.808 18.65 18.65 0 011.766 5.6c.196 1.292.198 3.94.004 5.201-.15.976-.358 1.924-.608 2.763l-.158.533-.347-.32c-.314-.29-1.404-1.047-1.601-1.112-.051-.017-.021-.264.08-.671.776-3.117.529-6.637-.68-9.68-1.74-4.385-5.409-7.868-9.835-9.34-4.079-1.356-8.359-1.073-12.209.809a16.123 16.123 0 00-8.18 9.352 16.09 16.09 0 002.778 15.242l.533.654-.81.814c-.446.447-.838.804-.871.793-.14-.047-1.217-1.42-1.792-2.286-1.455-2.189-2.454-4.819-2.857-7.523-.192-1.29-.19-4.02.005-5.269 1.1-7.082 5.902-12.713 12.742-14.944 1.165-.38 2.3-.604 4.124-.812.583-.066 3.363.034 4.106.149zm-3.219 7.893l-.216.186-.755 5.622-.755 5.622-.5.508c-.798.812-1.165 1.674-1.165 2.738a3.924 3.924 0 003.075 3.836c.571.128 1.624.06 2.18-.14 1.515-.546 2.568-2.061 2.568-3.696 0-1.064-.367-1.926-1.165-2.738l-.5-.508-.755-5.622-.755-5.622-.216-.186a.755.755 0 00-.52-.186.755.755 0 00-.52.186zm.82 8.711c.138 1.065.251 1.972.25 2.015-.001.044-.238.078-.55.078-.311 0-.548-.034-.549-.078-.006-.24.51-3.95.55-3.95.025 0 .16.87.299 1.935zm.752 3.886c1.029.504 1.517 1.668 1.182 2.82-.172.592-.825 1.277-1.406 1.475-.916.311-1.802.107-2.483-.574-.486-.486-.691-.973-.69-1.637.001-1.737 1.822-2.854 3.397-2.084zm12.368 3.097c3.44.876 5.607 4.325 4.893 7.787-.287 1.39-.901 2.49-1.95 3.492-2.594 2.478-6.569 2.473-9.195-.012-.871-.825-1.529-1.947-1.857-3.172-.234-.87-.237-2.404-.008-3.254.715-2.646 2.85-4.585 5.495-4.99.7-.108 1.881-.04 2.622.149zm-3.694 1.443c-.3.13-.417.329-.417.703 0 .228.165.528.865 1.575.8 1.196.863 1.318.84 1.621-.023.325-.026.328-.35.352-.304.022-.426-.041-1.622-.841-1.08-.722-1.343-.865-1.591-.865-.376 0-.609.162-.721.502-.158.479.014.714 1.002 1.367.478.317.855.6.836.632-.02.03-.405.299-.858.596-.95.624-1.132.87-.98 1.328.05.151.18.333.289.404.407.267.632.186 1.972-.706 1.178-.785 1.28-.837 1.648-.837h.391v.311c0 .266-.127.502-.86 1.608-.734 1.107-.86 1.343-.86 1.61 0 .54.528.897 1.026.69.174-.072.406-.347.833-.988.326-.49.616-.862.646-.828.03.033.303.434.606.89.61.916.84 1.087 1.29.958.325-.093.632-.534.573-.827-.023-.117-.413-.767-.866-1.446-.758-1.136-.824-1.264-.824-1.607v-.371h.372c.342 0 .471.066 1.606.823.68.453 1.33.843 1.447.867.293.058.733-.248.827-.575.129-.449-.042-.679-.959-1.289a28.214 28.214 0 01-.89-.605c-.033-.03.34-.321.829-.647.641-.427.916-.659.988-.833a.737.737 0 00-.691-1.027c-.266 0-.502.127-1.609.86-1.106.735-1.342.861-1.608.861h-.312v-.391c0-.368.052-.47.837-1.648.893-1.34.974-1.565.707-1.972a.887.887 0 00-.404-.29c-.458-.15-.705.031-1.328.981-.297.453-.566.839-.597.858-.03.019-.315-.357-.631-.836-.428-.647-.641-.898-.829-.977-.305-.127-.311-.127-.623.009z"/></symbol><symbol viewBox="0 0 40 41" id="thermometer-icon" xmlns="http://www.w3.org/2000/svg"><path fill-rule="evenodd" clip-rule="evenodd" d="M24.724.617a4.38 4.38 0 00-3.22 3.31c-.09.427-.11 2.31-.111 10.937l-.001 10.421-.465.316a7.985 7.985 0 00-3.187 4.512c-.268 1.005-.303 2.734-.078 3.784.674 3.138 2.966 5.595 5.96 6.387.68.18.945.208 2.033.215.966.006 1.393-.025 1.87-.137 1.663-.39 2.868-1.075 4.055-2.306 2.697-2.798 3.148-7.152 1.064-10.269a8.55 8.55 0 00-2.049-2.138L30 25.21l-.02-10.696-.021-10.696-.176-.467C29.006 1.294 26.817.11 24.724.617zm1.75 1.563c.82.244 1.51.877 1.8 1.648.156.42.159.563.163 11.16.003 8.104.027 10.8.098 11.002.073.213.216.343.68.62.706.423 1.882 1.58 2.257 2.219.615 1.049.892 2.087.891 3.347 0 1.79-.63 3.426-1.81 4.706-1.185 1.287-2.678 1.98-4.467 2.075-4.217.225-7.626-3.558-6.958-7.72.117-.733.472-1.71.855-2.355.446-.75 1.296-1.628 2.089-2.156.359-.238.704-.508.768-.6.102-.144.116-1.532.116-10.898 0-10.219.007-10.755.145-11.197.456-1.467 1.935-2.278 3.373-1.85zm-16.152.768c-1.877.315-3.394 1.12-4.701 2.495-3.05 3.207-3.05 8.091 0 11.299 1.72 1.808 4.064 2.737 6.486 2.57 3.557-.245 6.533-2.72 7.464-6.209.178-.666.202-.912.202-2.01 0-1.1-.024-1.345-.202-2.012-.957-3.586-4.033-6.07-7.684-6.203-.586-.022-1.175.005-1.565.07zm2.855 1.657c.609.155 1.643.623 2.165.98 1.278.873 2.288 2.306 2.698 3.83.23.853.25 2.42.042 3.203-.555 2.086-1.848 3.652-3.743 4.53-1.024.475-1.58.59-2.805.583-.904-.006-1.155-.037-1.744-.214-1.95-.586-3.4-1.81-4.237-3.576-.46-.972-.613-1.682-.613-2.849 0-.798.036-1.152.17-1.643.713-2.637 2.827-4.544 5.51-4.972.582-.093 1.962-.024 2.557.128zm18.837-.082c-.447.247-.518.843-.145 1.216l.228.23h1.81c1.994 0 2.168-.035 2.345-.461a.786.786 0 00-.202-.88c-.195-.183-.222-.186-2.01-.204-1.494-.015-1.85.002-2.026.1zM9.526 6.083c-.299.13-.417.328-.417.703 0 .227.165.528.865 1.575.8 1.196.863 1.318.841 1.621-.023.322-.03.328-.337.351-.283.02-.436-.059-1.607-.828-.711-.467-1.377-.872-1.479-.899-.525-.137-1.042.462-.864 1.002.07.21.255.376.924.826.46.31.866.591.904.624.037.033-.34.33-.838.66-.731.485-.92.65-.99.86-.188.57.35 1.147.918.984.128-.036.765-.422 1.416-.857 1.107-.74 1.207-.791 1.575-.791h.394v.314c0 .27-.122.497-.861 1.602-.718 1.075-.86 1.337-.86 1.585 0 .563.45.897.976.724.233-.078.375-.234.836-.927a29.7 29.7 0 01.608-.893c.03-.033.326.344.66.839.526.78.644.91.901.987.393.118.755-.06.919-.45.158-.38.106-.5-.825-1.893-.71-1.062-.79-1.216-.79-1.534v-.354h.372c.342 0 .471.066 1.584.808.667.444 1.297.83 1.4.856.275.07.683-.13.824-.403.272-.525.103-.785-.967-1.493-.476-.314-.866-.58-.866-.59 0-.01.39-.275.866-.59 1.07-.708 1.239-.968.967-1.493-.141-.274-.55-.473-.823-.402-.104.027-.763.43-1.465.896-1.08.717-1.323.846-1.584.846h-.308v-.393c0-.368.05-.468.79-1.573.931-1.393.983-1.513.825-1.893-.163-.388-.527-.568-.915-.452-.252.076-.376.211-.902.988-.335.495-.633.873-.663.84-.03-.033-.302-.434-.607-.891-.427-.643-.61-.852-.804-.92-.304-.105-.286-.106-.593.027zm22.552 1.57c-.321.167-.433.343-.436.688-.001.228.052.353.227.528l.228.228h1.065c1.217 0 1.393-.062 1.537-.543.115-.384-.064-.752-.44-.91-.377-.157-1.875-.152-2.181.008zm-6.802 2.394c-.37.214-.364.076-.364 8.907 0 6.572-.02 8.303-.098 8.324-1.234.329-1.956.711-2.68 1.422-.566.555-.983 1.23-1.271 2.06-.18.516-.207.717-.205 1.533.001.804.031 1.03.21 1.57a5.162 5.162 0 004.488 3.522c1.994.167 4.02-.997 4.917-2.823.375-.762.512-1.36.515-2.238.004-1.467-.445-2.547-1.492-3.592-.818-.816-1.509-1.198-2.604-1.44l-.215-.048V10.44l-.203-.24c-.167-.2-.259-.24-.528-.239-.179.002-.39.04-.47.087zm6.567.934c-.292.347-.278.753.037 1.055l.24.23 1.657.024c1.934.029 2.197-.021 2.432-.46.178-.331.13-.623-.149-.9l-.188-.19h-3.827l-.203.241zm.026 3.117c-.411.411-.263 1.052.292 1.263.308.117 1.79.09 2.097-.038.377-.158.556-.527.441-.91-.144-.481-.32-.543-1.537-.543h-1.065l-.228.228zm0 3.13c-.26.26-.313.712-.115.994.222.317.469.351 2.332.326 1.736-.023 1.77-.027 1.964-.21a.955.955 0 00.246-.407c.063-.288-.145-.727-.4-.843-.128-.059-.816-.09-1.997-.09h-1.802l-.228.23zM26.67 28.903c.538.138 1.072.458 1.528.914 2.034 2.038.909 5.481-1.951 5.971-1.054.181-2.229-.207-3.019-.997-1.32-1.32-1.383-3.486-.14-4.816.994-1.062 2.206-1.425 3.582-1.072z"/></symbol><symbol viewBox="0 0 40 41" id="ventilation-icon" xmlns="http://www.w3.org/2000/svg"><path fill-rule="evenodd" clip-rule="evenodd" d="M16.616.552c-4.51.5-8.39 2.381-11.46 5.558-2.283 2.364-3.814 5.095-4.61 8.23-.433 1.703-.548 2.677-.546 4.627.002 1.931.11 2.836.54 4.536 1.803 7.14 7.789 12.53 15.218 13.702 1.252.197 4.063.197 5.277-.001 1.033-.169 2.25-.458 2.997-.712l.548-.186.297.482c.4.648 1.472 1.747 2.188 2.241 4.136 2.86 9.82 1.402 12.046-3.09.242-.487.516-1.198.634-1.642.184-.693.207-.925.205-2.033-.001-1.095-.027-1.347-.204-2.011a8.92 8.92 0 00-1.23-2.676c-.494-.715-1.593-1.787-2.242-2.187l-.482-.297.154-.443c.25-.72.604-2.245.745-3.215.164-1.123.184-3.714.038-4.776-.866-6.273-4.613-11.555-10.113-14.256C24.8 1.512 22.97.937 21.073.663 20.011.507 17.556.447 16.616.551zm3.374 1.56A16.959 16.959 0 0131.6 8.41c3.4 4.274 4.538 9.895 3.056 15.094-.282.988-.207.945-1.224.703-.933-.223-2.637-.194-3.603.061-2.311.61-3.977 1.876-5.287 4.016-.083.136-.135.104-.654-.4a11.624 11.624 0 01-3.137-5.343l-.174-.65.323-.323.323-.323 2.605.446c2.802.48 3.575.537 4.406.326 1.796-.454 3.253-2.002 3.596-3.819.17-.894.165-4.63-.005-5.205-.242-.812-1.057-1.416-1.912-1.416-.627 0-1.137.264-1.608.83-1.782 2.144-3.791 3.487-6.201 4.145l-.73.199-.315-.339-.316-.339.442-2.62c.472-2.804.525-3.528.318-4.344-.285-1.12-1.093-2.264-2.049-2.898a6.285 6.285 0 00-1.114-.536l-.668-.24H12.51l-.42.232a1.997 1.997 0 00-.84 2.593c.14.3.35.536.84.946.902.754 1.82 1.744 2.353 2.536.573.853 1.25 2.268 1.494 3.119.33 1.15.332 1.094-.063 1.43l-.347.296-2.565-.444c-2.794-.484-3.535-.537-4.393-.315-1.284.334-2.594 1.395-3.165 2.563-.48.986-.533 1.407-.506 4.092.023 2.237.032 2.366.193 2.664.39.72.993 1.088 1.788 1.092.759.004 1.184-.223 1.768-.94 1.494-1.835 3.461-3.202 5.544-3.853 1.258-.393 1.215-.393 1.574-.004l.312.338-.446 2.583c-.489 2.827-.54 3.55-.31 4.42.426 1.613 1.734 2.952 3.406 3.487.355.113.811.143 2.596.17l2.166.035.05.442c.063.579.24 1.482.343 1.75l.08.214-.642.195c-1.697.515-2.917.69-4.866.697-1.741.006-2.72-.11-4.235-.5-5.57-1.436-10.052-5.634-11.835-11.086-1.747-5.342-.802-10.97 2.602-15.497.65-.864 2.031-2.285 2.847-2.928 3.474-2.742 7.902-4.07 12.157-3.648zm-2.394 4.969c.964.25 1.733.897 2.175 1.833.384.813.375 1.396-.06 3.912-.197 1.14-.377 2.162-.4 2.271-.04.198-.046.199-.83.19l-.789-.008-.25-.816c-.584-1.902-1.447-3.456-2.722-4.905-.446-.506-.768-.81-1.808-1.711-.313-.272-.364-.514-.156-.744.12-.132.295-.143 2.252-.143 1.659 0 2.224.026 2.588.12zm12.664 6.232c.103.146.122.492.122 2.186 0 1.182-.036 2.184-.087 2.427a3.375 3.375 0 01-1.82 2.333c-.86.422-1.376.413-4.181-.073a405.114 405.114 0 00-2.316-.398c-.011 0 .01-.185.047-.41.037-.227.046-.59.02-.808l-.047-.397.457-.101c1.158-.258 2.674-.944 3.925-1.777.946-.63 2.244-1.814 2.919-2.662.317-.4.435-.494.616-.494.142 0 .268.063.345.174zm-11.227 3.625c1.503.446 1.951 2.456.784 3.51-.428.387-.81.533-1.403.54-.632.007-1.105-.203-1.552-.688-.314-.341-.56-.943-.56-1.373 0-.807.638-1.692 1.41-1.959.527-.181.79-.188 1.322-.03zm-6.602.705c1.118.19 2.105.36 2.193.381.148.035.159.093.15.836l-.008.798-.62.172c-1.798.5-3.387 1.35-4.946 2.648-.594.494-1.024.944-1.932 2.022-.214.255-.448.275-.664.059-.149-.149-.157-.26-.157-2.252 0-2.75.109-3.189 1.007-4.085.7-.698 1.645-1.054 2.552-.962.215.022 1.306.194 2.425.383zm6.316 4.916c.275-.036.379-.021.402.057.927 3.161 2.091 5.07 4.224 6.93l.461.403-.1.473-.1.473h-1.902c-1.098 0-2.077-.037-2.316-.088-1.735-.364-2.893-2.002-2.644-3.738.09-.633.6-3.652.71-4.2l.078-.398.408.068c.224.037.575.046.779.02zm14.651 3.252c3.44.877 5.606 4.326 4.892 7.787-.287 1.39-.901 2.49-1.95 3.492-2.593 2.478-6.568 2.473-9.194-.012-.871-.825-1.529-1.947-1.857-3.172-.234-.87-.237-2.404-.008-3.253.715-2.646 2.85-4.586 5.495-4.99.699-.108 1.88-.04 2.622.148zm-3.694 1.443c-.3.13-.417.33-.417.704 0 .227.165.527.864 1.574.8 1.196.863 1.319.841 1.622-.023.324-.027.328-.351.351-.303.022-.425-.041-1.621-.84-1.08-.723-1.343-.865-1.591-.865-.376 0-.61.162-.721.502-.158.478.014.713 1.001 1.366.48.317.855.601.837.632-.02.03-.405.299-.858.596-.95.624-1.132.87-.98 1.329.05.15.18.332.289.403.407.267.632.187 1.972-.706 1.178-.785 1.28-.837 1.647-.837h.392v.311c0 .266-.127.502-.86 1.609-.735 1.106-.861 1.342-.861 1.608 0 .541.529.898 1.026.691.175-.072.407-.347.834-.988.325-.49.616-.862.646-.828.03.033.303.434.606.89.61.916.84 1.087 1.289.958.326-.093.632-.534.574-.827-.023-.117-.413-.767-.866-1.446-.758-1.135-.824-1.264-.824-1.606v-.372h.372c.342 0 .47.066 1.606.823.679.454 1.33.843 1.447.867.292.058.733-.248.826-.575.13-.448-.042-.679-.958-1.288a28.606 28.606 0 01-.89-.606c-.033-.03.34-.321.828-.646.641-.428.917-.66.989-.834A.737.737 0 0036.1 29.8c-.265 0-.502.126-1.608.86s-1.343.86-1.609.86h-.311v-.391c0-.367.052-.47.837-1.648.893-1.34.973-1.565.707-1.972a.887.887 0 00-.404-.289c-.458-.15-.705.031-1.329.98-.297.453-.565.84-.596.858-.03.02-.315-.357-.632-.836-.427-.646-.64-.898-.828-.976-.305-.127-.311-.127-.623.008z"/></symbol></svg>